# Blender 4.1.1
# www.blender.org
mtllib window.mtl
o frame
v -0.500000 -1.000000 -0.000000
v 0.500000 -1.000000 -0.000000
v -0.500000 1.000000 0.000000
v 0.500000 1.000000 0.000000
v -0.440923 0.940923 0.000000
v -0.440923 -0.940923 -0.000000
v 0.440923 -0.940923 -0.000000
v 0.440923 0.940923 0.000000
v -0.500000 -1.000000 -0.100000
v 0.500000 -1.000000 -0.100000
v -0.500000 1.000000 -0.100000
v 0.500000 1.000000 -0.100000
v -0.440923 0.940923 -0.100000
v -0.440923 -0.940923 -0.100000
v 0.440923 -0.940923 -0.100000
v 0.440923 0.940923 -0.100000
vn -0.0000 -0.0000 -1.0000
vn -0.0000 -0.0000 1.0000
vn -1.0000 -0.0000 -0.0000
vn -0.0000 -1.0000 -0.0000
vn -0.0000 1.0000 -0.0000
vn 1.0000 -0.0000 -0.0000
vt 0.059077 0.029539
vt 0.000000 0.000000
vt 0.000000 1.000000
vt 0.059077 0.970461
vt 0.940923 0.029539
vt 1.000000 0.000000
vt 0.940923 0.970461
vt 1.000000 1.000000
s 0
usemtl Material.003
f 6/1/1 1/2/1 3/3/1 5/4/1
f 7/5/1 2/6/1 1/2/1 6/1/1
f 8/7/1 4/8/1 2/6/1 7/5/1
f 5/4/1 3/3/1 4/8/1 8/7/1
f 14/1/2 13/4/2 11/3/2 9/2/2
f 15/5/2 14/1/2 9/2/2 10/6/2
f 16/7/2 15/5/2 10/6/2 12/8/2
f 13/4/2 16/7/2 12/8/2 11/3/2
f 6/1/3 5/4/3 13/4/3 14/1/3
f 4/8/4 3/3/4 11/3/4 12/8/4
f 1/2/5 2/6/5 10/6/5 9/2/5
f 5/4/5 8/7/5 16/7/5 13/4/5
f 7/5/4 6/1/4 14/1/4 15/5/4
f 2/6/3 4/8/3 12/8/3 10/6/3
f 3/3/6 1/2/6 9/2/6 11/3/6
f 8/7/6 7/5/6 15/5/6 16/7/6
o inner_frame
v -0.442648 -0.940923 -0.020000
v 0.439198 -0.940923 -0.020000
v -0.442648 0.940923 -0.020000
v 0.439198 0.940923 -0.020000
v -0.420148 0.895923 -0.020000
v -0.420148 -0.895923 -0.020000
v 0.416698 -0.895923 -0.020000
v 0.416698 0.895923 -0.020000
v -0.442648 -0.940923 -0.060000
v 0.439198 -0.940923 -0.060000
v -0.442648 0.940923 -0.060000
v 0.439198 0.940923 -0.060000
v -0.420148 0.895923 -0.060000
v -0.420148 -0.895923 -0.060000
v 0.416698 -0.895923 -0.060000
v 0.416698 0.895923 -0.060000
vn -0.0000 -0.0000 -1.0000
vn -0.0000 -0.0000 1.0000
vn -1.0000 -0.0000 -0.0000
vn 1.0000 -0.0000 -0.0000
vn -0.0000 -1.0000 -0.0000
vn -0.0000 1.0000 -0.0000
vt 0.025515 0.023913
vt 0.000000 0.000000
vt 0.000000 1.000000
vt 0.025515 0.976087
vt 0.974485 0.023913
vt 1.000000 0.000000
vt 0.974485 0.976087
vt 1.000000 1.000000
s 0
usemtl Material.002
f 22/9/7 17/10/7 19/11/7 21/12/7
f 23/13/7 18/14/7 17/10/7 22/9/7
f 24/15/7 20/16/7 18/14/7 23/13/7
f 21/12/7 19/11/7 20/16/7 24/15/7
f 30/9/8 29/12/8 27/11/8 25/10/8
f 31/13/8 30/9/8 25/10/8 26/14/8
f 32/15/8 31/13/8 26/14/8 28/16/8
f 29/12/8 32/15/8 28/16/8 27/11/8
f 18/14/9 20/16/9 28/16/9 26/14/9
f 19/11/10 17/10/10 25/10/10 27/11/10
f 24/15/10 23/13/10 31/13/10 32/15/10
f 22/9/9 21/12/9 29/12/9 30/9/9
f 20/16/11 19/11/11 27/11/11 28/16/11
f 17/10/12 18/14/12 26/14/12 25/10/12
f 21/12/12 24/15/12 32/15/12 29/12/12
f 23/13/11 22/9/11 30/9/11 31/13/11
o window_pane
v -0.420148 -0.895923 -0.046900
v 0.416698 -0.895923 -0.046900
v -0.420148 0.895923 -0.046900
v 0.416698 0.895923 -0.046900
v -0.420148 0.895923 -0.051043
v -0.420148 -0.895923 -0.051043
v 0.416698 -0.895923 -0.051043
v 0.416698 0.895923 -0.051043
vn -0.0000 -0.0000 -1.0000
vn -0.0000 -0.0000 1.0000
vn -0.0000 -1.0000 -0.0000
vn -0.0000 1.0000 -0.0000
vn -1.0000 -0.0000 -0.0000
vn 1.0000 -0.0000 -0.0000
vt 0.000000 0.000000
vt 0.000000 1.000000
vt 1.000000 1.000000
vt 1.000000 0.000000
s 0
usemtl Material.001
f 33/17/13 35/18/13 36/19/13 34/20/13
f 38/17/14 39/20/14 40/19/14 37/18/14
f 36/19/15 35/18/15 37/18/15 40/19/15
f 33/17/16 34/20/16 39/20/16 38/17/16
f 34/20/17 36/19/17 40/19/17 39/20/17
f 35/18/18 33/17/18 38/17/18 37/18/18
